<svg width="264" height="304" viewBox="0 0 264 304" fill="none" xmlns="http://www.w3.org/2000/svg">
<path d="M21.0401 182.565C49.4401 212.165 43.5401 246.565 37.0401 260.065C34.2067 268.565 32.64 288.065 49.04 298.065C65.44 308.065 87.2067 302.232 96.04 298.065L118.04 285.565C150.54 265.398 219.04 221.065 233.04 205.065C250.54 185.065 247.54 187.565 260.04 160.565C272.54 92.0648 248.04 66.0648 208.04 38.0648C168.04 10.0648 121.77 -2.90824 90.5 0.546631C54.46 4.52856 21.0401 22.5648 4.54007 83.5648C-8.65993 132.365 10.0401 169.898 21.0401 182.565Z" fill="#1D1D1D"/>
</svg>
