<svg width="302" height="296" viewBox="0 0 302 296" fill="none" xmlns="http://www.w3.org/2000/svg">
<path d="M141.147 3.86136C146.799 -1.37704 155.598 -1.28459 161.138 4.13285L297.138 137.133C299.92 139.854 301.493 143.58 301.5 147.473C301.507 151.365 299.949 155.097 297.177 157.829L161.177 291.829C155.539 297.383 146.489 297.392 140.842 291.848L4.34182 157.848C1.55768 155.115 -0.00727966 151.374 2.54605e-05 147.473C0.0073828 143.571 1.58655 139.837 4.38088 137.114L140.881 4.11429L141.147 3.86136ZM120.584 149.622L153.127 243.401L197.654 150.173L152.799 102.165L120.584 149.622ZM117.027 227.83L94.1836 162H49.9698L117.027 227.83ZM199.716 213.144L251.624 162H224.144L199.716 213.144ZM165.5 73.2803L221.296 133H251.435L165.5 48.961V73.2803ZM50.1602 133H96.8184L136.5 74.543V48.8731L50.1602 133Z" fill="#1A1A1A"/>
</svg>
